{
  "accessors": [
    {
      "bufferView": 0,
      "byteOffset": 0,
      "componentType": 5126,
      "count": 81,
      "max": [
        1,
        1,
        0
      ],
      "min": [
        -1,
        -1,
        0
      ],
      "type": "VEC3"
    },
    {
      "bufferView": 0,
      "byteOffset": 12,
      "componentType": 5126,
      "count": 81,
      "type": "VEC3"
    },
    {
      "bufferView": 0,
      "byteOffset": 24,
      "componentType": 5126,
      "count": 81,
      "type": "VEC2"
    },
    {
      "bufferView": 1,
      "componentType": 5125,
      "count": 384,
      "type": "SCALAR"
    }
  ],
  "asset": {
    "version": "2.0",
    "generator": "Metallic procedural tessellation demo"
  },
  "bufferViews": [
    {
      "buffer": 0,
      "byteLength": 2592,
      "byteOffset": 0,
      "byteStride": 32
    },
    {
      "buffer": 0,
      "byteLength": 1536,
      "byteOffset": 2592
    },
    {
      "buffer": 0,
      "byteOffset": 4128,
      "byteLength": 3478
    }
  ],
  "buffers": [
    {
      "uri": "data:application/octet-stream;base64,",
      "byteLength": 7606
    }
  ],
  "images": [
    {
      "bufferView": 2,
      "mimeType": "image/png"
    }
  ],
  "materials": [
    {
      "doubleSided": true,
      "extras": {
        "METALLIC_displacement": {
          "center": 0.5,
          "magnitude": 0.45,
          "texture": {
            "index": 0
          }
        }
      },
      "pbrMetallicRoughness": {
        "baseColorFactor": [
          0.25,
          0.45,
          0.65,
          1
        ],
        "metallicFactor": 0.15,
        "roughnessFactor": 0.45
      },
      "name": "Periodic height surface"
    }
  ],
  "meshes": [
    {
      "primitives": [
        {
          "attributes": {
            "NORMAL": 1,
            "POSITION": 0,
            "TEXCOORD_0": 2
          },
          "indices": 3,
          "material": 0
        }
      ]
    }
  ],
  "nodes": [
    {
      "mesh": 0,
      "name": "Displaced plane"
    }
  ],
  "scene": 0,
  "scenes": [
    {
      "nodes": [
        0
      ]
    }
  ],
  "textures": [
    {
      "source": 0
    }
  ]
}
